# xmcd
#
# Track frame offsets:
#	150
#	23155
#	44582
#	61939
#	80809
#	101768
#	114342
#	130976
#	152434
#	172734
#	207102
#	224662
#	245132
#	262656
#	280643
#	301048
#	325086
#
# Disc length: 4619 seconds
#
# Revision: 2
# Processed by: cddbd v1.5.2PL0 Copyright (c) Steve Scherf et al.
# Submitted via: EZCDAudioConverter 2.1.7.1
#
DISCID=e4120911
DTITLE=Fotheringay - Nothing More 2/3
DYEAR=1970
DGENRE=
TTITLE0=John The Gun
TTITLE1=Eppie Moray
TTITLE2=Wild Mountain Thyme
TTITLE3=Knights Of The Road
TTITLE4=Late November
TTITLE5=Restless
TTITLE6=Gypsy Davey
TTITLE7=I Don't Believe You
TTITLE8=Silver Threads And Golden Needles
TTITLE9=Bold Jack Donahue
TTITLE10=Two Weeks Last Summer
TTITLE11=Late November [Joe Boyd Mix]
TTITLE12=Gypsy Davey [Joe Boyd Mix]
TTITLE13=Two Weeks Last Summer [Joe Boyd Mix]
TTITLE14=Silver Threads And Golden Needles [2004 Version]
TTITLE15=Bruton Town [Band Rehearsal]
TTITLE16=Bruton Town [2015 Version]
EXTD=
EXTT0=
EXTT1=
EXTT2=
EXTT3=
EXTT4=
EXTT5=
EXTT6=
EXTT7=
EXTT8=
EXTT9=
EXTT10=
EXTT11=
EXTT12=
EXTT13=
EXTT14=
EXTT15=
EXTT16=
PLAYORDER=
